<?xml version="1.0" encoding="UTF-8" standalone="no"?>
<svg
   xmlns:dc="http://purl.org/dc/elements/1.1/"
   xmlns:cc="http://creativecommons.org/ns#"
   xmlns:rdf="http://www.w3.org/1999/02/22-rdf-syntax-ns#"
   xmlns:svg="http://www.w3.org/2000/svg"
   xmlns="http://www.w3.org/2000/svg"
   xmlns:sodipodi="http://sodipodi.sourceforge.net/DTD/sodipodi-0.dtd"
   xmlns:inkscape="http://www.inkscape.org/namespaces/inkscape"
   id="svg20"
   version="1.1"
   stroke-miterlimit="2"
   stroke-linejoin="round"
   clip-rule="evenodd"
   fill-rule="evenodd"
   height="834"
   width="1250"
   sodipodi:docname="BoardverseLogo.svg"
   inkscape:version="0.92.4 (5da689c313, 2019-01-14)">
  <sodipodi:namedview
     pagecolor="#ffffff"
     bordercolor="#666666"
     borderopacity="1"
     objecttolerance="10"
     gridtolerance="10"
     guidetolerance="10"
     inkscape:pageopacity="0"
     inkscape:pageshadow="2"
     inkscape:window-width="1920"
     inkscape:window-height="1017"
     id="namedview14"
     showgrid="false"
     inkscape:zoom="0.40018513"
     inkscape:cx="732.86262"
     inkscape:cy="458.51184"
     inkscape:window-x="-8"
     inkscape:window-y="-8"
     inkscape:window-maximized="1"
     inkscape:current-layer="svg20" />
  <defs
     id="defs24" />
  <g
     id="g107"
     transform="translate(3.8681392e-4)">
    <path
       sodipodi:nodetypes="ccccccccsccccccccc"
       style="fill:#1b1a1b;fill-rule:nonzero"
       inkscape:connector-curvature="0"
       d="m 723.358,29.176 c 15.417,0.271 30.525,6.529 41.604,17.2 L 1025.05,306.46 c 21.62,22.454 22.69,61.087 0,84.658 L 764.962,651.201 c -22.683,21.842 -62.025,22.35 -85.179,-0.512 l -28.417,-28.417 21.025,-21.017 c 15.842,15.842 30.58,37.43 50.25,37.43 7.955,0 15.792,-3.205 21.571,-8.771 L 1003.77,370.368 c 11.07,-11.513 11.2,-31.517 0,-43.154 L 744.212,67.66 C 732.629,56.51 712.671,56.197 700.737,67.972 L 672.391,96.326 651.371,75.301 C 672.416,54.26 692.1,29.705 721.912,29.176 c 0.729,-0.008 0.721,-0.008 1.446,0 z"
       id="path2" />
    <g
       id="g97">
      <ellipse
         id="ellipse4"
         ry="39.771999"
         rx="39.772999"
         cy="349.04199"
         cx="359.936"
         style="fill:#d01f26" />
      <ellipse
         id="ellipse6"
         ry="39.771999"
         rx="39.772999"
         cy="349.04199"
         cx="524.66101"
         style="fill:#d01f26" />
      <ellipse
         id="ellipse8"
         ry="39.771999"
         rx="39.772999"
         cy="513.76703"
         cx="524.66101"
         style="fill:#d01f26" />
      <ellipse
         id="ellipse10"
         ry="39.771999"
         rx="39.772999"
         cy="184.321"
         cx="524.66101"
         style="fill:#d01f26" />
      <ellipse
         id="ellipse12"
         ry="39.771999"
         rx="39.772999"
         cy="349.04199"
         cx="689.38098"
         style="fill:#d01f26" />
      <path
         sodipodi:nodetypes="cccccccccccccccccccccc"
         style="fill:#d01f26;fill-rule:nonzero"
         inkscape:connector-curvature="0"
         id="path14"
         d="m 528,29.168 c 15.53372,0.30438 30.38369,6.444861 41.596,17.2 l 260.083,260.083 c 21.625,22.463 22.692,61.088 0,84.659 L 569.596,651.193 c -22.567,21.725 -61.45,22.342 -84.655,0 L 224.858,391.11 c -21.725,-22.567 -22.346,-61.455 0,-84.659 L 484.941,46.368 c 11.617,-11.183 25.721,-17.3 43.055,-17.2 z m -1.109,29.729 c -7.91381,0.159029 -15.47958,3.283119 -21.2,8.754 L 246.137,327.21 c -11.058,11.491 -11.437,31.275 0,43.154 l 259.554,259.55 c 11.484,11.058 31.271,11.433 43.155,0 L 808.4,370.364 c 11.054,-11.488 11.433,-31.275 -0.004,-43.15 L 548.841,67.66 c -5.916,-5.696 -13.083,-8.817 -21.95,-8.759 z" />
    </g>
  </g>
  <g
     id="g119"
     transform="translate(-0.0025)">
    <path
       d="m 155.06,773.747 h 30.884 c 5.737,0 9.867,-0.794 12.39,-2.381 2.889,-1.831 4.333,-4.821 4.333,-8.972 0,-4.109 -1.444,-7.1 -4.333,-8.972 -2.482,-1.587 -6.612,-2.38 -12.39,-2.38 H 155.06 Z m 0,-36.438 h 31.921 c 4.842,0 8.22,-0.712 10.132,-2.136 2.157,-1.628 3.235,-4.151 3.235,-7.569 0,-3.499 -1.017,-5.991 -3.052,-7.477 -2.034,-1.485 -5.473,-2.227 -10.315,-2.227 H 155.06 Z m 52.124,6.531 c 9.359,3.54 14.038,10.091 14.038,19.653 0,7.609 -2.726,13.57 -8.179,17.883 -2.767,2.157 -5.971,3.713 -9.613,4.669 -3.642,0.957 -8.148,1.435 -13.519,1.435 h -56.946 v -1.953 c 1.465,-0.407 2.482,-0.936 3.052,-1.587 0.57,-0.651 0.854,-1.608 0.854,-2.869 v -70.496 c 0,-1.261 -0.284,-2.217 -0.854,-2.868 -0.57,-0.651 -1.587,-1.18 -3.052,-1.587 v -1.953 h 56.397 c 5.411,0 9.765,0.407 13.061,1.22 3.296,0.814 6.185,2.198 8.667,4.151 4.924,3.865 7.385,9.44 7.385,16.723 0,8.138 -3.763,13.998 -11.291,17.579 z"
       style="fill-rule:nonzero"
       id="path79"
       inkscape:connector-curvature="0" />
    <path
       d="m 286.377,730.595 c -7.048,0 -12.793,2.258 -17.235,6.775 -4.115,4.232 -6.172,9.542 -6.172,15.93 0,6.348 2.057,11.637 6.172,15.869 4.442,4.557 10.207,6.836 17.296,6.836 7.048,0 12.793,-2.279 17.235,-6.836 4.115,-4.191 6.172,-9.379 6.172,-15.564 0,-6.714 -2.057,-12.126 -6.172,-16.235 -4.482,-4.435 -10.248,-6.694 -17.296,-6.775 z m -0.061,-12.94 c 10.872,0 19.933,2.767 27.182,8.301 8.673,6.673 13.01,15.971 13.01,27.893 0,11.19 -4.337,20.122 -13.01,26.795 -7.168,5.534 -16.187,8.3 -27.06,8.3 -10.873,0 -19.892,-2.766 -27.06,-8.3 -8.714,-6.673 -13.071,-15.788 -13.071,-27.344 0,-11.678 4.357,-20.793 13.071,-27.344 7.208,-5.412 16.187,-8.178 26.938,-8.301 z"
       style="fill-rule:nonzero"
       id="path75"
       inkscape:connector-curvature="0" />
    <path
       d="m 399.442,760.807 -11.195,-21.987 -10.656,21.987 z m 4.921,9.583 h -31.437 l -3.542,7.446 c -0.855,1.79 -1.282,3.194 -1.282,4.212 0,1.953 1.302,3.194 3.907,3.723 v 1.709 h -25.116 v -1.709 c 1.547,-0.244 2.696,-0.712 3.449,-1.404 0.753,-0.692 1.638,-2.055 2.655,-4.089 L 377.96,729.74 c 0.936,-1.912 1.404,-3.58 1.404,-5.004 0,-1.669 -1.139,-2.971 -3.418,-3.907 v -1.709 h 26.55 v 1.709 c -2.238,0.895 -3.357,2.279 -3.357,4.151 0,1.342 0.509,2.99 1.526,4.944 l 25.879,49.011 c 1.424,2.662 2.543,4.386 3.357,5.172 0.814,0.787 2.055,1.341 3.723,1.664 v 1.709 h -27.923 v -1.709 c 2.642,-0.446 3.963,-1.682 3.963,-3.709 0,-1.256 -0.508,-2.817 -1.526,-4.681 z"
       style="fill-rule:nonzero"
       id="path71"
       inkscape:connector-curvature="0" />
    <path
       d="m 475.189,747.013 h 24.658 c 3.744,0 6.511,-0.407 8.301,-1.22 2.523,-1.099 3.784,-3.276 3.784,-6.531 0,-2.889 -0.885,-4.903 -2.655,-6.043 -1.77,-1.139 -4.913,-1.709 -9.43,-1.709 h -24.658 z m 0,12.39 v 21.801 c 0,1.258 0.285,2.223 0.855,2.892 0.569,0.67 1.587,1.228 3.051,1.675 v 1.709 h -24.169 v -1.709 c 1.424,-0.367 2.431,-0.896 3.021,-1.587 0.59,-0.692 0.885,-1.669 0.885,-2.93 v -55.908 c 0,-1.262 -0.285,-2.218 -0.855,-2.869 -0.569,-0.651 -1.587,-1.2 -3.051,-1.648 v -1.709 h 44.799 c 5.819,0 10.254,0.295 13.306,0.885 3.052,0.59 5.778,1.658 8.179,3.205 4.923,3.214 7.385,8.463 7.385,15.747 0,5.534 -1.516,9.857 -4.547,12.97 -3.032,3.112 -7.925,5.361 -14.679,6.744 l 12.939,18.026 c 2.36,3.329 4.242,5.593 5.646,6.79 a 10.02,10.02 0 0 0 4.791,2.284 v 1.709 h -28.747 v -1.709 c 2.119,-0.569 3.178,-1.482 3.178,-2.74 0,-0.894 -0.652,-2.253 -1.957,-4.08 l -13.656,-19.548 z"
       style="fill-rule:nonzero"
       id="path67"
       inkscape:connector-curvature="0" />
    <path
       d="m 576.874,775.09 h 17.456 c 8.016,0 13.834,-1.832 17.456,-5.494 3.784,-3.825 5.676,-9.257 5.676,-16.296 0,-7.039 -1.892,-12.472 -5.676,-16.296 -1.872,-1.913 -4.191,-3.306 -6.958,-4.181 -2.767,-0.875 -6.266,-1.313 -10.498,-1.313 h -17.456 z m -16.358,6.164 v -55.908 c 0,-1.262 -0.284,-2.218 -0.854,-2.869 -0.57,-0.651 -1.587,-1.2 -3.052,-1.648 v -1.709 h 40.1 c 8.342,0 14.913,1.038 19.715,3.113 6.754,2.93 11.617,7.772 14.587,14.526 2.075,4.72 3.113,10.234 3.113,16.541 0,11.678 -3.479,20.528 -10.437,26.55 -3.133,2.686 -6.826,4.629 -11.078,5.829 -4.252,1.2 -9.552,1.801 -15.9,1.801 h -40.1 v -1.709 c 1.424,-0.367 2.431,-0.896 3.021,-1.587 0.59,-0.692 0.885,-1.669 0.885,-2.93 z"
       style="fill-rule:nonzero"
       id="path63"
       inkscape:connector-curvature="0" />
    <path
       id="path61"
       d="m 695.359,765.835 16.585,-36.156 c 0.976,-2.075 1.464,-3.621 1.464,-4.638 0,-2.035 -1.322,-3.439 -3.967,-4.212 v -1.709 h 26.429 v 1.709 c -1.629,0.529 -2.809,1.18 -3.543,1.953 -0.733,0.774 -1.669,2.36 -2.809,4.761 l -23.944,50.354 c -0.855,1.79 -1.283,3.154 -1.283,4.089 0,2.035 1.343,3.317 4.03,3.846 v 1.648 H 681.51 v -1.648 c 2.645,-0.529 3.968,-1.811 3.968,-3.846 0,-0.935 -0.427,-2.299 -1.282,-4.089 l -23.943,-50.354 c -1.14,-2.441 -2.067,-4.038 -2.779,-4.791 -0.713,-0.753 -1.904,-1.394 -3.574,-1.923 v -1.709 h 27.39 v 1.709 c -2.604,0.814 -3.906,2.218 -3.906,4.212 0,0.895 0.509,2.441 1.525,4.638 z"
       style="fill-rule:nonzero"
       inkscape:connector-curvature="0" />
    <path
       id="path59"
       d="m 778.778,758.427 v 16.663 h 43.396 c 1.261,0 2.228,-0.281 2.899,-0.842 0.672,-0.56 1.211,-1.582 1.618,-3.065 h 1.709 v 20.203 h -1.709 c -0.367,-1.424 -0.896,-2.431 -1.587,-3.021 -0.692,-0.59 -1.669,-0.885 -2.93,-0.885 h -63.66 v -1.709 c 1.425,-0.367 2.432,-0.896 3.022,-1.587 0.59,-0.692 0.885,-1.669 0.885,-2.93 v -55.908 c 0,-1.262 -0.285,-2.218 -0.855,-2.869 -0.569,-0.651 -1.587,-1.2 -3.052,-1.648 v -1.709 h 61.768 c 1.302,0 2.289,-0.285 2.96,-0.854 0.672,-0.57 1.211,-1.587 1.618,-3.052 h 1.648 v 20.203 h -1.648 c -0.407,-1.483 -0.946,-2.505 -1.618,-3.065 -0.671,-0.561 -1.658,-0.842 -2.96,-0.842 h -41.504 v 15.015 h 25.757 c 1.261,0 2.228,-0.285 2.899,-0.854 0.671,-0.57 1.231,-1.587 1.679,-3.052 h 1.647 v 19.714 h -1.647 c -0.407,-1.442 -0.946,-2.454 -1.618,-3.035 -0.671,-0.581 -1.658,-0.871 -2.96,-0.871 z"
       style="fill-rule:nonzero"
       inkscape:connector-curvature="0" />
    <path
       d="m 874.603,747.013 h 24.658 c 3.744,0 6.511,-0.407 8.301,-1.22 2.523,-1.099 3.784,-3.276 3.784,-6.531 0,-2.889 -0.885,-4.903 -2.655,-6.043 -1.77,-1.139 -4.913,-1.709 -9.43,-1.709 h -24.658 z m 0,12.39 v 21.801 c 0,1.258 0.285,2.223 0.855,2.892 0.569,0.67 1.587,1.228 3.052,1.675 v 1.709 h -24.17 v -1.709 c 1.424,-0.367 2.431,-0.896 3.021,-1.587 0.59,-0.692 0.885,-1.669 0.885,-2.93 v -55.908 c 0,-1.262 -0.285,-2.218 -0.855,-2.869 -0.569,-0.651 -1.587,-1.2 -3.051,-1.648 v -1.709 h 44.799 c 5.819,0 10.254,0.295 13.306,0.885 3.052,0.59 5.778,1.658 8.179,3.205 4.923,3.214 7.385,8.463 7.385,15.747 0,5.534 -1.516,9.857 -4.547,12.97 -3.031,3.112 -7.924,5.361 -14.679,6.744 l 12.939,18.026 c 2.36,3.329 4.242,5.593 5.646,6.79 a 10.02,10.02 0 0 0 4.791,2.284 v 1.709 h -28.747 v -1.709 c 2.119,-0.569 3.178,-1.482 3.178,-2.74 0,-0.894 -0.652,-2.253 -1.957,-4.08 l -13.656,-19.548 z"
       style="fill-rule:nonzero"
       id="path55"
       inkscape:connector-curvature="0" />
    <path
       id="path53"
       d="m 1020.29,725.285 -8.24,15.93 -1.46,-0.793 c 0,-1.343 -0.43,-2.401 -1.28,-3.174 -2.32,-2.075 -5.74,-3.784 -10.256,-5.127 a 47.944,47.944 0 0 0 -13.733,-2.014 c -3.947,0 -7.446,0.549 -10.498,1.648 -4.395,1.586 -6.592,3.885 -6.592,6.897 0,1.993 1.058,3.407 3.174,4.241 2.116,0.835 6.205,1.496 12.268,1.984 l 9.644,0.733 c 8.423,0.651 14.833,2.278 19.223,4.882 2.44,1.465 4.46,3.418 6.05,5.86 1.99,3.051 2.99,6.49 2.99,10.315 0,6.958 -3.14,12.451 -9.4,16.479 -5.98,3.866 -14.082,5.798 -24.295,5.798 -10.295,0 -20.244,-2.176 -29.847,-6.53 -0.651,-0.285 -1.2,-0.428 -1.648,-0.428 -0.813,0 -1.566,0.489 -2.258,1.465 l -1.526,-0.61 7.019,-16.724 1.526,0.611 v 0.488 c 0,1.058 0.407,1.953 1.221,2.686 2.034,1.79 5.554,3.346 10.559,4.669 5.005,1.322 9.949,1.983 14.831,1.983 4.314,0 8.179,-0.569 11.597,-1.709 4.231,-1.383 6.351,-3.621 6.351,-6.713 0,-2.483 -1.47,-4.212 -4.4,-5.188 -1.951,-0.652 -5.471,-1.201 -10.557,-1.648 l -9.582,-0.794 c -5.168,-0.407 -9.115,-0.936 -11.841,-1.587 -2.726,-0.651 -5.107,-1.607 -7.141,-2.868 -2.604,-1.628 -4.639,-3.846 -6.104,-6.653 -1.465,-2.808 -2.197,-5.88 -2.197,-9.217 0,-7.487 3.214,-13.204 9.643,-17.15 5.86,-3.581 13.103,-5.372 21.729,-5.372 4.679,0 9.043,0.519 13.092,1.557 4.048,1.037 8.878,2.858 14.498,5.462 1.67,0.774 2.83,1.16 3.48,1.16 0.65,0 1.48,-0.447 2.5,-1.343 z"
       style="fill-rule:nonzero"
       inkscape:connector-curvature="0" />
    <path
       id="path16"
       d="m 1067.41,758.427 v 16.663 h 43.4 c 1.26,0 2.23,-0.281 2.9,-0.842 0.67,-0.56 1.21,-1.582 1.62,-3.065 h 1.71 v 20.203 h -1.71 c -0.37,-1.424 -0.9,-2.431 -1.59,-3.021 -0.69,-0.59 -1.67,-0.885 -2.93,-0.885 h -63.66 v -1.709 c 1.42,-0.367 2.43,-0.896 3.02,-1.587 0.59,-0.692 0.89,-1.669 0.89,-2.93 v -55.908 c 0,-1.262 -0.29,-2.218 -0.86,-2.869 -0.57,-0.651 -1.58,-1.2 -3.05,-1.648 v -1.709 h 61.77 c 1.3,0 2.29,-0.285 2.96,-0.854 0.67,-0.57 1.21,-1.587 1.62,-3.052 h 1.64 v 20.203 h -1.64 c -0.41,-1.483 -0.95,-2.505 -1.62,-3.065 -0.67,-0.561 -1.66,-0.842 -2.96,-0.842 h -41.51 v 15.015 h 25.76 c 1.26,0 2.23,-0.285 2.9,-0.854 0.67,-0.57 1.23,-1.587 1.68,-3.052 h 1.65 v 19.714 h -1.65 c -0.41,-1.442 -0.95,-2.454 -1.62,-3.035 -0.67,-0.581 -1.66,-0.871 -2.96,-0.871 z"
       style="fill-rule:nonzero"
       inkscape:connector-curvature="0" />
  </g>
</svg>
