<?xml version="1.0" encoding="UTF-8" standalone="no"?>
<svg
   xmlns:dc="http://purl.org/dc/elements/1.1/"
   xmlns:cc="http://creativecommons.org/ns#"
   xmlns:rdf="http://www.w3.org/1999/02/22-rdf-syntax-ns#"
   xmlns:svg="http://www.w3.org/2000/svg"
   xmlns="http://www.w3.org/2000/svg"
   width="500"
   height="500"
   stroke-miterlimit="2"
   version="1.1"
   id="svg186"
   style="clip-rule:evenodd;fill-rule:evenodd;stroke-linejoin:round;stroke-miterlimit:2">
  <metadata
     id="metadata8">
    <rdf:RDF>
      <cc:Work
         rdf:about="">
        <dc:format>image/svg+xml</dc:format>
        <dc:type
           rdf:resource="http://purl.org/dc/dcmitype/StillImage" />
        <dc:title></dc:title>
      </cc:Work>
    </rdf:RDF>
  </metadata>
  <defs
     id="defs190" />
  <path
     d="M 0,0 H 500 V 500 H 0 Z"
     id="path182"
     style="fill:#d01f26;stroke-width:0.1438849" />
  <path
     id="path22"
     d="M 250.47852 24.974609 C 238.26125 24.904539 228.32182 29.216361 220.13477 37.097656 A 20441.535 20441.535 0 0 0 36.828125 220.4043 C 21.078629 236.75825 21.516327 264.16724 36.828125 280.07227 C 97.544528 341.5586 158.647 402.66236 220.13477 463.37891 C 236.48873 479.12423 263.89523 478.6897 279.79883 463.37891 A 20558.073 20558.073 0 0 0 463.10742 280.07227 C 479.10023 263.45932 478.34771 236.23595 463.10742 220.4043 A 20548.481 20548.481 0 0 0 279.79883 37.097656 C 271.90099 29.519238 261.42919 25.188134 250.48242 24.974609 L 250.47852 24.974609 z M 249.70117 45.927734 L 249.70117 45.931641 C 255.95153 45.890922 261.00209 48.089128 265.17188 52.103516 A 20360.252 20360.252 0 0 1 448.10547 235.03711 C 456.16747 243.40689 455.89879 257.35477 448.10742 265.45117 C 387.51318 326.80944 326.53405 387.78466 265.17578 448.37891 C 256.80024 456.4379 242.8533 456.17315 234.75977 448.37891 A 20541.052 20541.052 0 0 1 51.826172 265.45117 C 43.765021 257.07851 44.032359 243.13588 51.826172 235.03516 A 20559.112 20559.112 0 0 1 234.75977 52.097656 A 22.261295 22.261295 0 0 1 249.70117 45.927734 z "
     style="fill:#ffffff;stroke-width:0.1438849" />
  <path
     id="path18"
     d="m 248.1295,338.48921 c 15.4705,0 28.03165,12.55971 28.03165,28.03165 0,15.47051 -12.56115,28.03166 -28.03165,28.03166 -15.47195,0 -28.03166,-12.56115 -28.03166,-28.03166 0,-15.47194 12.55971,-28.03165 28.03166,-28.03165 z"
     style="fill:#ffffff;stroke-width:0.1438849" />
  <path
     id="path16"
     d="m 132.03094,222.39137 c 15.47122,0 28.03237,12.55971 28.03237,28.03021 0,15.47195 -12.56115,28.0331 -28.03237,28.0331 -15.47123,0 -28.0318,-12.56115 -28.0318,-28.0331 0,-15.4705 12.56057,-28.03021 28.0318,-28.03021 z"
     style="fill:#ffffff;stroke-width:0.1438849" />
  <path
     id="path14"
     d="m 248.1295,222.39137 c 15.4705,0 28.03165,12.55971 28.03165,28.03021 0,15.47195 -12.56115,28.0331 -28.03165,28.0331 -15.47195,0 -28.03166,-12.56115 -28.03166,-28.0331 0,-15.4705 12.55971,-28.03021 28.03166,-28.03021 z"
     style="fill:#ffffff;stroke-width:0.1438849" />
  <path
     id="path12"
     d="m 364.22446,222.39137 c 15.4705,0 28.03166,12.55971 28.03166,28.03021 0,15.47195 -12.56116,28.0331 -28.03166,28.0331 -15.47194,0 -28.03165,-12.56115 -28.03165,-28.0331 0,-15.4705 12.55971,-28.03021 28.03165,-28.03021 z"
     style="fill:#ffffff;stroke-width:0.1438849" />
  <path
     id="path184"
     d="m 248.1295,106.29568 c 15.4705,0 28.03165,12.56058 28.03165,28.0318 0,15.47108 -12.56115,28.03079 -28.03165,28.03079 -15.47195,0 -28.03166,-12.55971 -28.03166,-28.03079 0,-15.47122 12.55971,-28.0318 28.03166,-28.0318 z"
     style="fill:#ffffff;stroke-width:0.1438849" />
</svg>
